<?xml version="1.0" encoding="UTF-8" standalone="no"?>
<!DOCTYPE svg PUBLIC "-//W3C//DTD SVG 1.1//EN"
 "http://www.w3.org/Graphics/SVG/1.1/DTD/svg11.dtd">
<!-- Generated by graphviz version 2.49.2 (20211016.1639)
 -->
<!-- Title: DependenciesGraph Pages: 1 -->
<svg width="1886pt" height="417pt"
 viewBox="0.00 0.00 1885.82 417.00" xmlns="http://www.w3.org/2000/svg" xmlns:xlink="http://www.w3.org/1999/xlink">
<g id="graph0" class="graph" transform="scale(1 1) rotate(0) translate(4 413)">
<title>DependenciesGraph</title>
<polygon fill="white" stroke="transparent" points="-4,4 -4,-413 1881.82,-413 1881.82,4 -4,4"/>
<!-- /Users/d_date/ghq/github.com/d&#45;date/SwiftPMProjectExample/SwiftPMExample/Package -->
<g id="node1" class="node">
<title>/Users/d_date/ghq/github.com/d&#45;date/SwiftPMProjectExample/SwiftPMExample/Package</title>
<polygon fill="none" stroke="black" points="1049.32,-409 526.32,-409 526.32,-356 1049.32,-356 1049.32,-409"/>
<text text-anchor="middle" x="787.82" y="-393.8" font-family="Times,serif" font-size="14.00">package</text>
<text text-anchor="middle" x="787.82" y="-378.8" font-family="Times,serif" font-size="14.00">/Users/d_date/ghq/github.com/d&#45;date/SwiftPMProjectExample/SwiftPMExample/Package</text>
<text text-anchor="middle" x="787.82" y="-363.8" font-family="Times,serif" font-size="14.00">unspecified</text>
</g>
<!-- https://github.com/firebase/firebase&#45;ios&#45;sdk -->
<g id="node2" class="node">
<title>https://github.com/firebase/firebase&#45;ios&#45;sdk</title>
<polygon fill="none" stroke="black" points="917.32,-320 658.32,-320 658.32,-267 917.32,-267 917.32,-320"/>
<text text-anchor="middle" x="787.82" y="-304.8" font-family="Times,serif" font-size="14.00">firebase&#45;ios&#45;sdk</text>
<text text-anchor="middle" x="787.82" y="-289.8" font-family="Times,serif" font-size="14.00">https://github.com/firebase/firebase&#45;ios&#45;sdk</text>
<text text-anchor="middle" x="787.82" y="-274.8" font-family="Times,serif" font-size="14.00">8.8.1</text>
</g>
<!-- /Users/d_date/ghq/github.com/d&#45;date/SwiftPMProjectExample/SwiftPMExample/Package&#45;&gt;https://github.com/firebase/firebase&#45;ios&#45;sdk -->
<g id="edge1" class="edge">
<title>/Users/d_date/ghq/github.com/d&#45;date/SwiftPMProjectExample/SwiftPMExample/Package&#45;&gt;https://github.com/firebase/firebase&#45;ios&#45;sdk</title>
<path fill="none" stroke="black" d="M787.82,-355.87C787.82,-347.89 787.82,-338.93 787.82,-330.38"/>
<polygon fill="black" stroke="black" points="791.32,-330.25 787.82,-320.25 784.32,-330.25 791.32,-330.25"/>
</g>
<!-- https://github.com/google/promises.git -->
<g id="node3" class="node">
<title>https://github.com/google/promises.git</title>
<polygon fill="none" stroke="black" points="312.32,-53 79.32,-53 79.32,0 312.32,0 312.32,-53"/>
<text text-anchor="middle" x="195.82" y="-37.8" font-family="Times,serif" font-size="14.00">promises</text>
<text text-anchor="middle" x="195.82" y="-22.8" font-family="Times,serif" font-size="14.00">https://github.com/google/promises.git</text>
<text text-anchor="middle" x="195.82" y="-7.8" font-family="Times,serif" font-size="14.00">2.0.0</text>
</g>
<!-- https://github.com/firebase/firebase&#45;ios&#45;sdk&#45;&gt;https://github.com/google/promises.git -->
<g id="edge2" class="edge">
<title>https://github.com/firebase/firebase&#45;ios&#45;sdk&#45;&gt;https://github.com/google/promises.git</title>
<path fill="none" stroke="black" d="M658.09,-291.64C448.12,-288.89 52.8,-277.52 9.82,-231 -26.02,-192.22 51.34,-89.46 51.82,-89 65.2,-76.11 81.69,-65.72 98.69,-57.41"/>
<polygon fill="black" stroke="black" points="100.58,-60.4 108.17,-53.01 97.63,-54.05 100.58,-60.4"/>
</g>
<!-- https://github.com/apple/swift&#45;protobuf.git -->
<g id="node4" class="node">
<title>https://github.com/apple/swift&#45;protobuf.git</title>
<polygon fill="none" stroke="black" points="993.82,-231 737.82,-231 737.82,-178 993.82,-178 993.82,-231"/>
<text text-anchor="middle" x="865.82" y="-215.8" font-family="Times,serif" font-size="14.00">swift&#45;protobuf</text>
<text text-anchor="middle" x="865.82" y="-200.8" font-family="Times,serif" font-size="14.00">https://github.com/apple/swift&#45;protobuf.git</text>
<text text-anchor="middle" x="865.82" y="-185.8" font-family="Times,serif" font-size="14.00">1.18.0</text>
</g>
<!-- https://github.com/firebase/firebase&#45;ios&#45;sdk&#45;&gt;https://github.com/apple/swift&#45;protobuf.git -->
<g id="edge3" class="edge">
<title>https://github.com/firebase/firebase&#45;ios&#45;sdk&#45;&gt;https://github.com/apple/swift&#45;protobuf.git</title>
<path fill="none" stroke="black" d="M810.8,-266.87C818.66,-258.1 827.58,-248.15 835.91,-238.86"/>
<polygon fill="black" stroke="black" points="838.66,-241.03 842.73,-231.25 833.45,-236.36 838.66,-241.03"/>
</g>
<!-- https://github.com/google/GoogleAppMeasurement.git -->
<g id="node5" class="node">
<title>https://github.com/google/GoogleAppMeasurement.git</title>
<polygon fill="none" stroke="black" points="357.82,-231 33.82,-231 33.82,-178 357.82,-178 357.82,-231"/>
<text text-anchor="middle" x="195.82" y="-215.8" font-family="Times,serif" font-size="14.00">googleappmeasurement</text>
<text text-anchor="middle" x="195.82" y="-200.8" font-family="Times,serif" font-size="14.00">https://github.com/google/GoogleAppMeasurement.git</text>
<text text-anchor="middle" x="195.82" y="-185.8" font-family="Times,serif" font-size="14.00">8.8.0</text>
</g>
<!-- https://github.com/firebase/firebase&#45;ios&#45;sdk&#45;&gt;https://github.com/google/GoogleAppMeasurement.git -->
<g id="edge4" class="edge">
<title>https://github.com/firebase/firebase&#45;ios&#45;sdk&#45;&gt;https://github.com/google/GoogleAppMeasurement.git</title>
<path fill="none" stroke="black" d="M657.89,-273.62C577.27,-261.88 471.24,-246.4 367.83,-231.15"/>
<polygon fill="black" stroke="black" points="368.23,-227.67 357.83,-229.67 367.21,-234.59 368.23,-227.67"/>
</g>
<!-- https://github.com/google/GoogleUtilities.git -->
<g id="node6" class="node">
<title>https://github.com/google/GoogleUtilities.git</title>
<polygon fill="none" stroke="black" points="330.32,-142 61.32,-142 61.32,-89 330.32,-89 330.32,-142"/>
<text text-anchor="middle" x="195.82" y="-126.8" font-family="Times,serif" font-size="14.00">googleutilities</text>
<text text-anchor="middle" x="195.82" y="-111.8" font-family="Times,serif" font-size="14.00">https://github.com/google/GoogleUtilities.git</text>
<text text-anchor="middle" x="195.82" y="-96.8" font-family="Times,serif" font-size="14.00">7.5.2</text>
</g>
<!-- https://github.com/firebase/firebase&#45;ios&#45;sdk&#45;&gt;https://github.com/google/GoogleUtilities.git -->
<g id="edge12" class="edge">
<title>https://github.com/firebase/firebase&#45;ios&#45;sdk&#45;&gt;https://github.com/google/GoogleUtilities.git</title>
<path fill="none" stroke="black" d="M658.1,-291.42C451.55,-288.34 66.78,-276.48 24.82,-231 8.84,-213.69 11.27,-197.27 24.82,-178 33.82,-165.19 45.76,-155.04 59.16,-146.99"/>
<polygon fill="black" stroke="black" points="61.11,-149.91 68.16,-142 57.72,-143.79 61.11,-149.91"/>
</g>
<!-- https://github.com/firebase/nanopb.git -->
<g id="node7" class="node">
<title>https://github.com/firebase/nanopb.git</title>
<polygon fill="none" stroke="black" points="643.82,-142 413.82,-142 413.82,-89 643.82,-89 643.82,-142"/>
<text text-anchor="middle" x="528.82" y="-126.8" font-family="Times,serif" font-size="14.00">nanopb</text>
<text text-anchor="middle" x="528.82" y="-111.8" font-family="Times,serif" font-size="14.00">https://github.com/firebase/nanopb.git</text>
<text text-anchor="middle" x="528.82" y="-96.8" font-family="Times,serif" font-size="14.00">2.30908.0</text>
</g>
<!-- https://github.com/firebase/firebase&#45;ios&#45;sdk&#45;&gt;https://github.com/firebase/nanopb.git -->
<g id="edge14" class="edge">
<title>https://github.com/firebase/firebase&#45;ios&#45;sdk&#45;&gt;https://github.com/firebase/nanopb.git</title>
<path fill="none" stroke="black" d="M761.77,-266.86C751.21,-256.08 739.1,-243.23 728.82,-231 709.99,-208.62 713.09,-195.71 689.82,-178 672.58,-164.88 652.21,-154.26 631.86,-145.77"/>
<polygon fill="black" stroke="black" points="633.11,-142.5 622.53,-142.03 630.5,-149 633.11,-142.5"/>
</g>
<!-- https://github.com/google/GoogleDataTransport.git -->
<g id="node8" class="node">
<title>https://github.com/google/GoogleDataTransport.git</title>
<polygon fill="none" stroke="black" points="681.32,-231 376.32,-231 376.32,-178 681.32,-178 681.32,-231"/>
<text text-anchor="middle" x="528.82" y="-215.8" font-family="Times,serif" font-size="14.00">googledatatransport</text>
<text text-anchor="middle" x="528.82" y="-200.8" font-family="Times,serif" font-size="14.00">https://github.com/google/GoogleDataTransport.git</text>
<text text-anchor="middle" x="528.82" y="-185.8" font-family="Times,serif" font-size="14.00">9.1.1</text>
</g>
<!-- https://github.com/firebase/firebase&#45;ios&#45;sdk&#45;&gt;https://github.com/google/GoogleDataTransport.git -->
<g id="edge8" class="edge">
<title>https://github.com/firebase/firebase&#45;ios&#45;sdk&#45;&gt;https://github.com/google/GoogleDataTransport.git</title>
<path fill="none" stroke="black" d="M711.86,-266.98C681.29,-256.72 645.88,-244.82 614.41,-234.25"/>
<polygon fill="black" stroke="black" points="615.37,-230.88 604.77,-231.01 613.14,-237.52 615.37,-230.88"/>
</g>
<!-- https://github.com/google/gtm&#45;session&#45;fetcher.git -->
<g id="node9" class="node">
<title>https://github.com/google/gtm&#45;session&#45;fetcher.git</title>
<polygon fill="none" stroke="black" points="1305.32,-231 1012.32,-231 1012.32,-178 1305.32,-178 1305.32,-231"/>
<text text-anchor="middle" x="1158.82" y="-215.8" font-family="Times,serif" font-size="14.00">gtm&#45;session&#45;fetcher</text>
<text text-anchor="middle" x="1158.82" y="-200.8" font-family="Times,serif" font-size="14.00">https://github.com/google/gtm&#45;session&#45;fetcher.git</text>
<text text-anchor="middle" x="1158.82" y="-185.8" font-family="Times,serif" font-size="14.00">1.7.0</text>
</g>
<!-- https://github.com/firebase/firebase&#45;ios&#45;sdk&#45;&gt;https://github.com/google/gtm&#45;session&#45;fetcher.git -->
<g id="edge13" class="edge">
<title>https://github.com/firebase/firebase&#45;ios&#45;sdk&#45;&gt;https://github.com/google/gtm&#45;session&#45;fetcher.git</title>
<path fill="none" stroke="black" d="M896.62,-266.98C941.64,-256.43 993.97,-244.16 1039.99,-233.36"/>
<polygon fill="black" stroke="black" points="1041.08,-236.71 1050.01,-231.01 1039.48,-229.89 1041.08,-236.71"/>
</g>
<!-- https://github.com/firebase/abseil&#45;cpp&#45;SwiftPM.git -->
<g id="node10" class="node">
<title>https://github.com/firebase/abseil&#45;cpp&#45;SwiftPM.git</title>
<polygon fill="none" stroke="black" points="1484.32,-142 1183.32,-142 1183.32,-89 1484.32,-89 1484.32,-142"/>
<text text-anchor="middle" x="1333.82" y="-126.8" font-family="Times,serif" font-size="14.00">abseil&#45;cpp&#45;swiftpm</text>
<text text-anchor="middle" x="1333.82" y="-111.8" font-family="Times,serif" font-size="14.00">https://github.com/firebase/abseil&#45;cpp&#45;SwiftPM.git</text>
<text text-anchor="middle" x="1333.82" y="-96.8" font-family="Times,serif" font-size="14.00">0.20200225.4</text>
</g>
<!-- https://github.com/firebase/firebase&#45;ios&#45;sdk&#45;&gt;https://github.com/firebase/abseil&#45;cpp&#45;SwiftPM.git -->
<g id="edge15" class="edge">
<title>https://github.com/firebase/firebase&#45;ios&#45;sdk&#45;&gt;https://github.com/firebase/abseil&#45;cpp&#45;SwiftPM.git</title>
<path fill="none" stroke="black" d="M917.33,-285.44C1064.03,-276.21 1286.52,-257.97 1314.82,-231 1335.59,-211.21 1339.13,-178.01 1338.18,-152.45"/>
<polygon fill="black" stroke="black" points="1341.67,-152.14 1337.57,-142.37 1334.68,-152.56 1341.67,-152.14"/>
</g>
<!-- https://github.com/firebase/grpc&#45;SwiftPM.git -->
<g id="node11" class="node">
<title>https://github.com/firebase/grpc&#45;SwiftPM.git</title>
<polygon fill="none" stroke="black" points="1629.82,-231 1361.82,-231 1361.82,-178 1629.82,-178 1629.82,-231"/>
<text text-anchor="middle" x="1495.82" y="-215.8" font-family="Times,serif" font-size="14.00">grpc&#45;swiftpm</text>
<text text-anchor="middle" x="1495.82" y="-200.8" font-family="Times,serif" font-size="14.00">https://github.com/firebase/grpc&#45;SwiftPM.git</text>
<text text-anchor="middle" x="1495.82" y="-185.8" font-family="Times,serif" font-size="14.00">1.28.4</text>
</g>
<!-- https://github.com/firebase/firebase&#45;ios&#45;sdk&#45;&gt;https://github.com/firebase/grpc&#45;SwiftPM.git -->
<g id="edge16" class="edge">
<title>https://github.com/firebase/firebase&#45;ios&#45;sdk&#45;&gt;https://github.com/firebase/grpc&#45;SwiftPM.git</title>
<path fill="none" stroke="black" d="M917.38,-280.54C1031.06,-269.51 1200.73,-251.73 1347.82,-231 1349.09,-230.82 1350.36,-230.64 1351.64,-230.46"/>
<polygon fill="black" stroke="black" points="1352.17,-233.92 1361.56,-229 1351.16,-226.99 1352.17,-233.92"/>
</g>
<!-- https://github.com/firebase/leveldb.git -->
<g id="node13" class="node">
<title>https://github.com/firebase/leveldb.git</title>
<polygon fill="none" stroke="black" points="1877.82,-231 1647.82,-231 1647.82,-178 1877.82,-178 1877.82,-231"/>
<text text-anchor="middle" x="1762.82" y="-215.8" font-family="Times,serif" font-size="14.00">leveldb</text>
<text text-anchor="middle" x="1762.82" y="-200.8" font-family="Times,serif" font-size="14.00">https://github.com/firebase/leveldb.git</text>
<text text-anchor="middle" x="1762.82" y="-185.8" font-family="Times,serif" font-size="14.00">1.22.2</text>
</g>
<!-- https://github.com/firebase/firebase&#45;ios&#45;sdk&#45;&gt;https://github.com/firebase/leveldb.git -->
<g id="edge19" class="edge">
<title>https://github.com/firebase/firebase&#45;ios&#45;sdk&#45;&gt;https://github.com/firebase/leveldb.git</title>
<path fill="none" stroke="black" d="M917.4,-288.4C1082.59,-281.99 1377.01,-266.57 1637.69,-231.08"/>
<polygon fill="black" stroke="black" points="1638.3,-234.53 1647.73,-229.7 1637.34,-227.59 1638.3,-234.53"/>
</g>
<!-- https://github.com/google/GoogleAppMeasurement.git&#45;&gt;https://github.com/google/GoogleUtilities.git -->
<g id="edge5" class="edge">
<title>https://github.com/google/GoogleAppMeasurement.git&#45;&gt;https://github.com/google/GoogleUtilities.git</title>
<path fill="none" stroke="black" d="M195.82,-177.87C195.82,-169.89 195.82,-160.93 195.82,-152.38"/>
<polygon fill="black" stroke="black" points="199.32,-152.25 195.82,-142.25 192.32,-152.25 199.32,-152.25"/>
</g>
<!-- https://github.com/google/GoogleAppMeasurement.git&#45;&gt;https://github.com/firebase/nanopb.git -->
<g id="edge7" class="edge">
<title>https://github.com/google/GoogleAppMeasurement.git&#45;&gt;https://github.com/firebase/nanopb.git</title>
<path fill="none" stroke="black" d="M293.48,-177.98C333.63,-167.49 380.27,-155.31 421.38,-144.57"/>
<polygon fill="black" stroke="black" points="422.37,-147.93 431.16,-142.01 420.6,-141.16 422.37,-147.93"/>
</g>
<!-- https://github.com/google/GoogleUtilities.git&#45;&gt;https://github.com/google/promises.git -->
<g id="edge6" class="edge">
<title>https://github.com/google/GoogleUtilities.git&#45;&gt;https://github.com/google/promises.git</title>
<path fill="none" stroke="black" d="M195.82,-88.87C195.82,-80.89 195.82,-71.93 195.82,-63.38"/>
<polygon fill="black" stroke="black" points="199.32,-63.25 195.82,-53.25 192.32,-63.25 199.32,-63.25"/>
</g>
<!-- https://github.com/google/GoogleDataTransport.git&#45;&gt;https://github.com/google/promises.git -->
<g id="edge10" class="edge">
<title>https://github.com/google/GoogleDataTransport.git&#45;&gt;https://github.com/google/promises.git</title>
<path fill="none" stroke="black" d="M470.92,-177.99C449.59,-167.76 425.57,-155.26 404.82,-142 373.11,-121.75 371.06,-108.39 338.82,-89 318.94,-77.05 296.33,-66.2 275.04,-57.06"/>
<polygon fill="black" stroke="black" points="276.26,-53.78 265.69,-53.12 273.54,-60.23 276.26,-53.78"/>
</g>
<!-- https://github.com/google/GoogleDataTransport.git&#45;&gt;https://github.com/google/GoogleUtilities.git -->
<g id="edge11" class="edge">
<title>https://github.com/google/GoogleDataTransport.git&#45;&gt;https://github.com/google/GoogleUtilities.git</title>
<path fill="none" stroke="black" d="M431.15,-177.98C391,-167.49 344.37,-155.31 303.25,-144.57"/>
<polygon fill="black" stroke="black" points="304.03,-141.16 293.47,-142.01 302.27,-147.93 304.03,-141.16"/>
</g>
<!-- https://github.com/google/GoogleDataTransport.git&#45;&gt;https://github.com/firebase/nanopb.git -->
<g id="edge9" class="edge">
<title>https://github.com/google/GoogleDataTransport.git&#45;&gt;https://github.com/firebase/nanopb.git</title>
<path fill="none" stroke="black" d="M528.82,-177.87C528.82,-169.89 528.82,-160.93 528.82,-152.38"/>
<polygon fill="black" stroke="black" points="532.32,-152.25 528.82,-142.25 525.32,-152.25 532.32,-152.25"/>
</g>
<!-- https://github.com/firebase/grpc&#45;SwiftPM.git&#45;&gt;https://github.com/firebase/abseil&#45;cpp&#45;SwiftPM.git -->
<g id="edge17" class="edge">
<title>https://github.com/firebase/grpc&#45;SwiftPM.git&#45;&gt;https://github.com/firebase/abseil&#45;cpp&#45;SwiftPM.git</title>
<path fill="none" stroke="black" d="M1448.09,-177.87C1430.04,-168.18 1409.33,-157.05 1390.53,-146.96"/>
<polygon fill="black" stroke="black" points="1391.95,-143.75 1381.48,-142.1 1388.64,-149.91 1391.95,-143.75"/>
</g>
<!-- https://github.com/firebase/boringssl&#45;SwiftPM.git -->
<g id="node12" class="node">
<title>https://github.com/firebase/boringssl&#45;SwiftPM.git</title>
<polygon fill="none" stroke="black" points="1797.32,-142 1502.32,-142 1502.32,-89 1797.32,-89 1797.32,-142"/>
<text text-anchor="middle" x="1649.82" y="-126.8" font-family="Times,serif" font-size="14.00">boringssl&#45;swiftpm</text>
<text text-anchor="middle" x="1649.82" y="-111.8" font-family="Times,serif" font-size="14.00">https://github.com/firebase/boringssl&#45;SwiftPM.git</text>
<text text-anchor="middle" x="1649.82" y="-96.8" font-family="Times,serif" font-size="14.00">0.7.2</text>
</g>
<!-- https://github.com/firebase/grpc&#45;SwiftPM.git&#45;&gt;https://github.com/firebase/boringssl&#45;SwiftPM.git -->
<g id="edge18" class="edge">
<title>https://github.com/firebase/grpc&#45;SwiftPM.git&#45;&gt;https://github.com/firebase/boringssl&#45;SwiftPM.git</title>
<path fill="none" stroke="black" d="M1541.19,-177.87C1558.19,-168.26 1577.68,-157.25 1595.41,-147.24"/>
<polygon fill="black" stroke="black" points="1597.52,-150.07 1604.5,-142.1 1594.07,-143.97 1597.52,-150.07"/>
</g>
</g>
</svg>
